<svg width="630" height="527" viewBox="0 0 630 527" fill="none" xmlns="http://www.w3.org/2000/svg">
<g style="mix-blend-mode:color-dodge">
<path d="M-145.051 418.827L-65.4428 339.773L-9.91097 339.967L146.576 184.569L215.24 253.715L506.948 -35.9613L509.207 -33.6868L215.111 258.361L146.447 189.216L-8.67585 343.258L-64.2077 343.064L-142.792 421.101C-141.44 423.373 -141.791 426.432 -143.838 428.464C-146.226 430.836 -150.08 430.822 -152.451 428.434C-154.823 426.046 -154.809 422.193 -152.421 419.821C-150.374 417.788 -147.427 417.572 -145.051 418.827Z" fill="url(#paint0_linear)"/>
<path d="M-134.977 390.076L-70.0395 325.591L-14.5077 325.785L147.893 164.515L216.444 233.546L497.462 -45.5143L499.72 -43.2398L216.315 238.192L147.651 169.047L-13.3856 328.962L-68.9174 328.768L-132.832 392.237C-131.479 394.508 -131.83 397.567 -133.877 399.6C-136.265 401.971 -140.119 401.958 -142.49 399.57C-144.862 397.181 -144.848 393.328 -142.46 390.957C-140.413 388.924 -137.352 388.595 -134.977 390.076Z" fill="url(#paint1_linear)"/>
<path d="M-72.6727 300.649L6.93561 221.595L62.4673 221.788L171.644 113.372L147.364 88.9205L348.545 -110.86L350.804 -108.586L152.011 88.8235L176.291 113.274L63.8162 224.966L8.28449 224.773L-70.414 302.923C-69.062 305.194 -69.4126 308.253 -71.4597 310.286C-73.8479 312.658 -77.7012 312.644 -80.0728 310.256C-82.4444 307.868 -82.4309 304.014 -80.0426 301.643C-77.9956 299.61 -75.0483 299.394 -72.6727 300.649Z" fill="url(#paint2_linear)"/>
<path d="M-62.5988 271.898L2.33884 207.413L57.8705 207.606L152.946 113.193L128.665 88.7424L344.062 -125.155L346.321 -122.881L133.198 88.7582L157.479 113.209L59.1056 210.897L3.57395 210.703L-60.3402 274.173C-59.1018 276.557 -59.3389 279.503 -61.386 281.535C-63.7742 283.907 -67.6273 283.894 -69.9989 281.505C-72.3706 279.117 -72.3572 275.264 -69.9689 272.892C-68.0348 270.746 -64.9736 270.416 -62.5988 271.898Z" fill="url(#paint3_linear)"/>
<path d="M-69.3481 257.368L-4.41051 192.882L51.1212 193.076L131.412 113.345L107.131 88.8936L337.313 -139.685L339.571 -137.411L111.664 88.9095L135.945 113.361L52.4701 196.254L-3.06162 196.06L-66.9757 259.529C-65.6237 261.801 -65.9745 264.859 -68.0215 266.892C-70.4098 269.264 -74.2629 269.25 -76.6345 266.862C-79.0061 264.474 -78.9927 260.621 -76.6045 258.249C-74.6711 256.329 -71.61 256 -69.3481 257.368Z" fill="url(#paint4_linear)"/>
<path d="M243.243 186.154C241.21 184.107 240.993 181.159 242.248 178.784L219.323 155.698L259.696 115.606L315.227 115.8L424.404 7.38303L400.124 -17.0681L601.305 -216.849L603.564 -214.574L404.657 -17.0522L428.938 7.39889L316.462 119.091L260.931 118.897L223.856 155.713L244.523 176.525C246.794 175.173 249.853 175.524 251.886 177.571C254.257 179.959 254.244 183.812 251.856 186.184C249.467 188.556 245.614 188.542 243.243 186.154Z" fill="url(#paint5_linear)"/>
<path d="M311.865 104.908L256.333 104.714L201.062 159.6L214.163 172.793C216.434 171.441 219.493 171.791 221.526 173.838C223.897 176.227 223.884 180.08 221.496 182.451C219.107 184.823 215.254 184.81 212.883 182.421C210.85 180.374 210.633 177.427 211.888 175.051L196.529 159.585L255.098 101.423L310.63 101.617L405.705 7.20435L381.424 -17.2468L596.822 -231.144L599.08 -228.87L385.957 -17.2309L410.238 7.22019L311.865 104.908Z" fill="url(#paint6_linear)"/>
<path d="M305.229 90.4924L249.697 90.2983L176.685 162.802C178.037 165.073 177.687 168.132 175.639 170.165C173.251 172.537 169.398 172.523 167.026 170.135C164.655 167.747 164.668 163.893 167.056 161.522C169.104 159.489 172.051 159.273 174.426 160.528L248.348 87.1203L303.88 87.3144L384.171 7.58282L359.89 -16.8684L590.072 -245.447L592.33 -243.173L364.423 -16.8526L388.704 7.59865L305.229 90.4924Z" fill="url(#paint7_linear)"/>
<path d="M237.382 14.6627L251.16 28.5372L212.038 67.3866C213.276 69.7708 213.039 72.7167 210.992 74.7495C208.604 77.1211 204.751 77.1076 202.379 74.7194C200.008 72.3311 200.021 68.4779 202.409 66.1063C204.456 64.0734 207.404 63.8571 209.779 65.112L246.513 28.6343L237.365 19.4225L173.451 82.8915L195.473 105.068L277.47 23.6425L253.189 -0.808545L449.594 -195.846L451.853 -193.571L257.722 -0.79271L282.003 23.6583L195.344 109.714L168.691 82.875L237.382 14.6627Z" fill="url(#paint8_linear)"/>
<path d="M-268.414 240.919L-188.806 161.865L-133.274 162.059L-102.568 131.567L-23.9832 53.5292L-48.2641 29.078L152.917 -170.703L155.176 -168.428L-43.7309 29.0938L-19.4499 53.5451L-100.309 133.841L-131.925 165.237L-175.255 208.265C-173.903 210.536 -174.253 213.595 -176.3 215.628C-178.689 218 -182.542 217.986 -184.914 215.598C-187.285 213.21 -187.272 209.356 -184.883 206.985C-182.836 204.952 -179.889 204.735 -177.513 205.99L-136.458 165.221L-150.738 165.171L-221.248 235.191C-219.896 237.462 -220.247 240.521 -222.294 242.553C-224.682 244.925 -228.535 244.912 -230.907 242.523C-233.279 240.135 -233.265 236.282 -230.877 233.91C-228.83 231.877 -225.882 231.661 -223.507 232.916L-155.385 165.268L-187.344 165.157L-266.043 243.307C-264.691 245.579 -265.041 248.637 -267.088 250.67C-269.477 253.042 -273.33 253.028 -275.701 250.64C-278.073 248.252 -278.06 244.399 -275.671 242.027C-273.737 239.88 -270.789 239.437 -268.414 240.919Z" fill="url(#paint9_linear)"/>
<path d="M-258.34 211.941L-193.402 147.456L-137.87 147.65L-42.7954 53.2367L-67.0763 28.7856L148.207 -184.999L150.466 -182.724L-62.6568 28.9144L-38.3759 53.3656L-136.749 151.054L-192.281 150.86L-256.195 214.329C-254.957 216.713 -255.193 219.659 -257.241 221.692C-259.629 224.063 -263.482 224.05 -265.854 221.661C-268.225 219.273 -268.212 215.42 -265.824 213.048C-263.663 210.903 -260.715 210.686 -258.34 211.941Z" fill="url(#paint10_linear)"/>
<path d="M-264.976 197.525L-200.038 133.04L-144.507 133.233L-64.3298 53.6148L-88.6106 29.1638L141.571 -199.415L143.943 -197.027L-83.9645 29.2933L-59.6837 53.7444L-143.159 136.638L-198.69 136.444L-262.604 199.913C-261.366 202.297 -261.603 205.243 -263.65 207.276C-266.038 209.648 -269.892 209.634 -272.263 207.246C-274.635 204.858 -274.621 201.004 -272.233 198.633C-270.299 196.486 -267.352 196.27 -264.976 197.525Z" fill="url(#paint11_linear)"/>
<path d="M28.228 95.8707L70.1267 138.063C72.398 136.711 75.4567 137.062 77.4895 139.109C79.8611 141.497 79.8477 145.35 77.4595 147.722C75.0712 150.094 71.2179 150.08 68.8463 147.692C66.8135 145.645 66.5972 142.697 67.8522 140.322L23.6948 95.8549L64.0676 55.7632L119.599 55.9573L228.777 -52.4596L204.496 -76.9107L405.677 -276.691L408.049 -274.303L209.142 -76.7812L233.423 -52.33L120.947 59.362L65.4156 59.1679L28.3409 95.9844L28.228 95.8707Z" fill="url(#paint12_linear)"/>
<path d="M209.737 -52.526L185.456 -76.9772L400.853 -290.875L403.112 -288.6L190.103 -77.0742L214.384 -52.6231L116.011 45.0651L60.4789 44.871L5.20798 99.757L39.5401 134.33C41.9244 133.092 44.8701 133.328 46.9029 135.376C49.2745 137.764 49.2611 141.617 46.8729 143.989C44.4846 146.36 40.6314 146.347 38.2597 143.958C36.2269 141.911 36.0106 138.964 37.2655 136.589L0.561856 99.6275L59.1308 41.4664L114.663 41.6604L209.624 -52.6397L209.737 -52.526Z" fill="url(#paint13_linear)"/>
<path d="M-50.0874 129.143L52.6074 27.1636L108.139 27.3577L188.43 -52.3738L164.149 -76.825L394.331 -305.404L396.589 -303.129L168.682 -76.8092L192.963 -52.358L109.374 30.6487L53.8425 30.4546L-47.8287 131.418C-46.4766 133.689 -46.8272 136.748 -48.8743 138.781C-51.2625 141.152 -55.1159 141.139 -57.4875 138.751C-59.8591 136.362 -59.8455 132.509 -57.4573 130.138C-55.4102 128.105 -52.3492 127.775 -50.0874 129.143Z" fill="url(#paint14_linear)"/>
<path d="M116.067 -3.55385C117.305 -1.16956 117.068 1.77616 115.021 3.80898C112.633 6.1806 108.78 6.16721 106.408 3.77897C104.037 1.39072 104.05 -2.46254 106.438 -4.83416C108.485 -6.86698 111.433 -7.0833 113.808 -5.82836L162.369 -54.0513L138.089 -78.5024L339.27 -278.283L341.529 -276.008L142.622 -78.4865L166.903 -54.0355L116.067 -3.55385Z" fill="url(#paint15_linear)"/>
<path d="M92.1366 1.46212C93.4886 3.73347 93.138 6.79227 91.0909 8.82509C88.7026 11.1967 84.8494 11.1832 82.4778 8.79493C80.1061 6.40668 80.1197 2.55355 82.5079 0.181929C84.555 -1.85089 87.5023 -2.06735 89.8779 -0.812404L143.557 -54.1174L119.276 -78.5685L334.673 -292.466L336.932 -290.192L123.923 -78.6656L148.204 -54.2145L92.1366 1.46212Z" fill="url(#paint16_linear)"/>
<path d="M68.7995 -1.11221L122.023 -53.9654L97.7424 -78.4165L327.924 -306.995L330.183 -304.721L102.276 -78.4007L126.557 -53.9496L71.0582 1.16232C72.4102 3.43367 72.0596 6.49247 70.0125 8.52528C67.6242 10.8969 63.771 10.8834 61.3994 8.49512C59.0277 6.10687 59.0413 2.25374 61.4295 -0.117875C63.4766 -2.15069 66.5376 -2.48009 68.7995 -1.11221Z" fill="url(#paint17_linear)"/>
<path d="M41.6399 -45.0664L55.4179 -31.1918L16.2962 7.65756C17.6482 9.92892 17.2976 12.9877 15.2505 15.0205C12.8623 17.3922 9.009 17.3786 6.63737 14.9904C4.26574 12.6021 4.27912 8.74882 6.66737 6.3772C8.71444 4.34439 11.6619 4.12807 14.0375 5.38302L50.771 -31.0947L41.6233 -40.3066L-22.2908 23.1625L-0.268505 45.3392L81.728 -36.0864L57.447 -60.5376L253.852 -255.575L256.111 -253.301L62.094 -60.6347L86.375 -36.1835L-0.284332 49.8724L-26.9369 23.033L41.6399 -45.0664Z" fill="url(#paint18_linear)"/>
</g>
<defs>
<linearGradient id="paint0_linear" x1="-192.278" y1="560.641" x2="1203.89" y2="-822.617" gradientUnits="userSpaceOnUse">
<stop stop-color="#0A324A"/>
<stop offset="0.0866122" stop-color="#0C354E"/>
<stop offset="0.2118" stop-color="#11405A"/>
<stop offset="0.3605" stop-color="#1A5470"/>
<stop offset="0.5273" stop-color="#297596"/>
<stop offset="0.7068" stop-color="#46A6CE"/>
<stop offset="0.8" stop-color="#5BC5F2"/>
</linearGradient>
<linearGradient id="paint1_linear" x1="-219.95" y1="568.121" x2="758.954" y2="-397.591" gradientUnits="userSpaceOnUse">
<stop stop-color="#0A324A"/>
<stop offset="0.0866122" stop-color="#0C354E"/>
<stop offset="0.2118" stop-color="#11405A"/>
<stop offset="0.3605" stop-color="#1A5470"/>
<stop offset="0.5273" stop-color="#297596"/>
<stop offset="0.7068" stop-color="#46A6CE"/>
<stop offset="0.8" stop-color="#5BC5F2"/>
</linearGradient>
<linearGradient id="paint2_linear" x1="-239.893" y1="498.855" x2="607.497" y2="-358.573" gradientUnits="userSpaceOnUse">
<stop stop-color="#0A324A"/>
<stop offset="0.0866122" stop-color="#0C354E"/>
<stop offset="0.2118" stop-color="#11405A"/>
<stop offset="0.3605" stop-color="#1A5470"/>
<stop offset="0.5273" stop-color="#297596"/>
<stop offset="0.7068" stop-color="#46A6CE"/>
<stop offset="0.8" stop-color="#5BC5F2"/>
</linearGradient>
<linearGradient id="paint3_linear" x1="-489.808" y1="719.631" x2="489.1" y2="-246.085" gradientUnits="userSpaceOnUse">
<stop stop-color="#0A324A"/>
<stop offset="0.0866122" stop-color="#0C354E"/>
<stop offset="0.2118" stop-color="#11405A"/>
<stop offset="0.3605" stop-color="#1A5470"/>
<stop offset="0.5273" stop-color="#297596"/>
<stop offset="0.7068" stop-color="#46A6CE"/>
<stop offset="0.8" stop-color="#5BC5F2"/>
</linearGradient>
<linearGradient id="paint4_linear" x1="-269.638" y1="482.557" x2="1126.52" y2="-900.698" gradientUnits="userSpaceOnUse">
<stop stop-color="#0A324A"/>
<stop offset="0.0866122" stop-color="#0C354E"/>
<stop offset="0.2118" stop-color="#11405A"/>
<stop offset="0.3605" stop-color="#1A5470"/>
<stop offset="0.5273" stop-color="#297596"/>
<stop offset="0.7068" stop-color="#46A6CE"/>
<stop offset="0.8" stop-color="#5BC5F2"/>
</linearGradient>
<linearGradient id="paint5_linear" x1="-406.397" y1="804.174" x2="572.509" y2="-161.54" gradientUnits="userSpaceOnUse">
<stop stop-color="#0A324A"/>
<stop offset="0.0866122" stop-color="#0C354E"/>
<stop offset="0.2118" stop-color="#11405A"/>
<stop offset="0.3605" stop-color="#1A5470"/>
<stop offset="0.5273" stop-color="#297596"/>
<stop offset="0.7068" stop-color="#46A6CE"/>
<stop offset="0.8" stop-color="#5BC5F2"/>
</linearGradient>
<linearGradient id="paint6_linear" x1="-172.81" y1="565.152" x2="674.582" y2="-292.277" gradientUnits="userSpaceOnUse">
<stop stop-color="#0A324A"/>
<stop offset="0.0866122" stop-color="#0C354E"/>
<stop offset="0.2118" stop-color="#11405A"/>
<stop offset="0.3605" stop-color="#1A5470"/>
<stop offset="0.5273" stop-color="#297596"/>
<stop offset="0.7068" stop-color="#46A6CE"/>
<stop offset="0.8" stop-color="#5BC5F2"/>
</linearGradient>
<linearGradient id="paint7_linear" x1="456.903" y1="-86.2037" x2="-592.397" y2="888.857" gradientUnits="userSpaceOnUse">
<stop stop-color="#0A324A"/>
<stop offset="0.0866122" stop-color="#0C354E"/>
<stop offset="0.2118" stop-color="#11405A"/>
<stop offset="0.3605" stop-color="#1A5470"/>
<stop offset="0.5273" stop-color="#297596"/>
<stop offset="0.7068" stop-color="#46A6CE"/>
<stop offset="0.8" stop-color="#5BC5F2"/>
</linearGradient>
<linearGradient id="paint8_linear" x1="416.087" y1="-130.127" x2="-633.214" y2="844.934" gradientUnits="userSpaceOnUse">
<stop stop-color="#0A324A"/>
<stop offset="0.0866122" stop-color="#0C354E"/>
<stop offset="0.2118" stop-color="#11405A"/>
<stop offset="0.3605" stop-color="#1A5470"/>
<stop offset="0.5273" stop-color="#297596"/>
<stop offset="0.7068" stop-color="#46A6CE"/>
<stop offset="0.8" stop-color="#5BC5F2"/>
</linearGradient>
<linearGradient id="paint9_linear" x1="293.932" y1="-261.583" x2="-755.371" y2="713.48" gradientUnits="userSpaceOnUse">
<stop stop-color="#0A324A"/>
<stop offset="0.0866122" stop-color="#0C354E"/>
<stop offset="0.2118" stop-color="#11405A"/>
<stop offset="0.3605" stop-color="#1A5470"/>
<stop offset="0.5273" stop-color="#297596"/>
<stop offset="0.7068" stop-color="#46A6CE"/>
<stop offset="0.8" stop-color="#5BC5F2"/>
</linearGradient>
<linearGradient id="paint10_linear" x1="-616.229" y1="591.479" x2="362.675" y2="-374.233" gradientUnits="userSpaceOnUse">
<stop stop-color="#0A324A"/>
<stop offset="0.0866122" stop-color="#0C354E"/>
<stop offset="0.2118" stop-color="#11405A"/>
<stop offset="0.3605" stop-color="#1A5470"/>
<stop offset="0.5273" stop-color="#297596"/>
<stop offset="0.7068" stop-color="#46A6CE"/>
<stop offset="0.8" stop-color="#5BC5F2"/>
</linearGradient>
<linearGradient id="paint11_linear" x1="272.12" y1="-285.056" x2="-777.184" y2="690.008" gradientUnits="userSpaceOnUse">
<stop stop-color="#0A324A"/>
<stop offset="0.0866122" stop-color="#0C354E"/>
<stop offset="0.2118" stop-color="#11405A"/>
<stop offset="0.3605" stop-color="#1A5470"/>
<stop offset="0.5273" stop-color="#297596"/>
<stop offset="0.7068" stop-color="#46A6CE"/>
<stop offset="0.8" stop-color="#5BC5F2"/>
</linearGradient>
<linearGradient id="paint12_linear" x1="-291.388" y1="460.607" x2="1104.78" y2="-922.65" gradientUnits="userSpaceOnUse">
<stop stop-color="#0A324A"/>
<stop offset="0.0866122" stop-color="#0C354E"/>
<stop offset="0.2118" stop-color="#11405A"/>
<stop offset="0.3605" stop-color="#1A5470"/>
<stop offset="0.5273" stop-color="#297596"/>
<stop offset="0.7068" stop-color="#46A6CE"/>
<stop offset="0.8" stop-color="#5BC5F2"/>
</linearGradient>
<linearGradient id="paint13_linear" x1="-304.544" y1="447.327" x2="1091.62" y2="-935.931" gradientUnits="userSpaceOnUse">
<stop stop-color="#0A324A"/>
<stop offset="0.0866122" stop-color="#0C354E"/>
<stop offset="0.2118" stop-color="#11405A"/>
<stop offset="0.3605" stop-color="#1A5470"/>
<stop offset="0.5273" stop-color="#297596"/>
<stop offset="0.7068" stop-color="#46A6CE"/>
<stop offset="0.8" stop-color="#5BC5F2"/>
</linearGradient>
<linearGradient id="paint14_linear" x1="-314.189" y1="425.43" x2="533.203" y2="-431.999" gradientUnits="userSpaceOnUse">
<stop stop-color="#0A324A"/>
<stop offset="0.0866122" stop-color="#0C354E"/>
<stop offset="0.2118" stop-color="#11405A"/>
<stop offset="0.3605" stop-color="#1A5470"/>
<stop offset="0.5273" stop-color="#297596"/>
<stop offset="0.7068" stop-color="#46A6CE"/>
<stop offset="0.8" stop-color="#5BC5F2"/>
</linearGradient>
<linearGradient id="paint15_linear" x1="324.991" y1="-228.159" x2="-724.314" y2="746.906" gradientUnits="userSpaceOnUse">
<stop stop-color="#0A324A"/>
<stop offset="0.0866122" stop-color="#0C354E"/>
<stop offset="0.2118" stop-color="#11405A"/>
<stop offset="0.3605" stop-color="#1A5470"/>
<stop offset="0.5273" stop-color="#297596"/>
<stop offset="0.7068" stop-color="#46A6CE"/>
<stop offset="0.8" stop-color="#5BC5F2"/>
</linearGradient>
<linearGradient id="paint16_linear" x1="-573.957" y1="634.332" x2="404.953" y2="-331.386" gradientUnits="userSpaceOnUse">
<stop stop-color="#0A324A"/>
<stop offset="0.0866122" stop-color="#0C354E"/>
<stop offset="0.2118" stop-color="#11405A"/>
<stop offset="0.3605" stop-color="#1A5470"/>
<stop offset="0.5273" stop-color="#297596"/>
<stop offset="0.7068" stop-color="#46A6CE"/>
<stop offset="0.8" stop-color="#5BC5F2"/>
</linearGradient>
<linearGradient id="paint17_linear" x1="-584.414" y1="623.718" x2="394.487" y2="-341.992" gradientUnits="userSpaceOnUse">
<stop stop-color="#0A324A"/>
<stop offset="0.0866122" stop-color="#0C354E"/>
<stop offset="0.2118" stop-color="#11405A"/>
<stop offset="0.3605" stop-color="#1A5470"/>
<stop offset="0.5273" stop-color="#297596"/>
<stop offset="0.7068" stop-color="#46A6CE"/>
<stop offset="0.8" stop-color="#5BC5F2"/>
</linearGradient>
<linearGradient id="paint18_linear" x1="-596.948" y1="611.029" x2="381.963" y2="-354.691" gradientUnits="userSpaceOnUse">
<stop stop-color="#0A324A"/>
<stop offset="0.0866122" stop-color="#0C354E"/>
<stop offset="0.2118" stop-color="#11405A"/>
<stop offset="0.3605" stop-color="#1A5470"/>
<stop offset="0.5273" stop-color="#297596"/>
<stop offset="0.7068" stop-color="#46A6CE"/>
<stop offset="0.8" stop-color="#5BC5F2"/>
</linearGradient>
</defs>
</svg>
